<?xml version="1.0" encoding="UTF-8"?>
<svg width="300px" height="200px" viewBox="0 0 300 200" version="1.1" xmlns="http://www.w3.org/2000/svg" xmlns:xlink="http://www.w3.org/1999/xlink">
    <title>Artboard Copy 2</title>
    <g id="Page-1" stroke="none" stroke-width="1" fill="none" fill-rule="evenodd" stroke-linecap="round" stroke-linejoin="round">
        <g id="Artboard-Copy-2" stroke="#E02020" stroke-width="2.25">
            <g id="Group" transform="translate(120.000000, 80.000000)">
                <path d="M29.2740347,1.04463653 C7.3661716,-3.18314055 11.6159082,40.8115783 35.5969451,33.0880374 C51.0753378,28.1029319 46.7402447,-5.96013081 27.7591603,0.911865041" id="First-Ball" stroke-opacity="0.25"></path>
                <path d="M31.0241062,10.010166 C9.24444708,5.71337659 7.0814877,40 32.0199428,40 C48.3881047,40 48.3881047,2.89105599 29.5180969,9.8752272 L31.0241062,10.010166 Z" id="Second-Ball" stroke-opacity="0.4"></path>
                <path d="M30.2429451,19.2782905 C27.8689288,18.8714659 25.5072439,17.7319865 23.1208963,18.0578167 C10.939301,19.7210829 9.56796398,50.850452 27.597934,52.8302746 C52.2162766,55.5335488 49.3563313,25.136037 27.5476887,19.239394" id="Third-Ball" stroke-opacity="0.55"></path>
                <path d="M28.9543493,32.1747651 C25.5491878,32.3786834 21.8331008,31.3336546 18.7388649,32.7865198 C5.14602364,39.1688923 14.5157809,60.827076 25.7491618,63.7518567 C30.2762726,64.9305585 47.1305409,61.8555482 47.8951172,55.6882162 C49.1627603,45.4629757 38.6754227,36.9310786 30.7168646,33.1996825 L28.9543493,32.1747651 Z" id="Fourth-Ball" stroke-opacity="0.7"></path>
                <path d="M31.5064179,41.8714973 C27.092765,41.6870336 21.3321609,38.1384147 18.2654601,41.3181062 L15.9599886,42.2905556 C9.64066159,48.8427144 1.29135191,60.2905511 16.9729551,62.1632886 C24.8096533,63.0991674 32.7443471,63.031244 40.6364616,62.9666106 C49.499003,62.8940298 57.8632117,55.4996759 49.6352623,47.6804286 C43.4408398,41.793698 37.9299532,41.8815527 29.4949689,40.4829818" id="Fifth-Ball" stroke-opacity="0.85"></path>
                <path d="M31.2260832,48.0213538 C30.8282968,48.0080868 13.4659539,46.0239353 7.42021237,48.1905009 C-9.94860889,54.4148309 7.7431781,60.72575 14.3400054,61.8006423 C19.5584112,62.6509335 24.8825046,62.7610493 30.1707066,62.883142 C34.9044983,62.9924347 39.6910307,63.2052411 44.3704786,62.4939787 C56.9017432,60.5892631 58.8627483,54.3149319 47.5191801,48.1822962 C44.079669,46.3228046 34.1568741,47.2045638 31.9411273,47.2372057 L31.2260832,48.0213538 Z" id="Sixth-Ball"></path>
            </g>
        </g>
    </g>
</svg>