<?xml version="1.0" encoding="UTF-8"?>
<svg width="300px" height="200px" viewBox="0 0 300 200" version="1.1" xmlns="http://www.w3.org/2000/svg" xmlns:xlink="http://www.w3.org/1999/xlink">
    <title>Artboard Copy</title>
    <g id="Page-1" stroke="none" stroke-width="1" fill="none" fill-rule="evenodd">
        <g id="Artboard-Copy">
            <rect fill="#202020" x="0" y="0" width="300" height="200"></rect>
            <g id="Group" transform="translate(56.000000, 6.000000)" stroke="#808085">
                <path d="M10.2555408,-4.14336123e-16 L177.744459,4.14336123e-16 C181.310534,-2.4074122e-16 182.603679,0.371302445 183.907383,1.06853082 C185.211087,1.76575919 186.234241,2.78891348 186.931469,4.09261719 C187.628698,5.39632089 188,6.68946584 188,10.2555408 L188,177.744459 C188,181.310534 187.628698,182.603679 186.931469,183.907383 C186.234241,185.211087 185.211087,186.234241 183.907383,186.931469 C182.603679,187.628698 181.310534,188 177.744459,188 L10.2555408,188 C6.68946584,188 5.39632089,187.628698 4.09261719,186.931469 C2.78891348,186.234241 1.76575919,185.211087 1.06853082,183.907383 C0.371302445,182.603679 1.60494146e-16,181.310534 -2.76224082e-16,177.744459 L2.76224082e-16,10.2555408 C-1.60494146e-16,6.68946584 0.371302445,5.39632089 1.06853082,4.09261719 C1.76575919,2.78891348 2.78891348,1.76575919 4.09261719,1.06853082 C5.39632089,0.371302445 6.68946584,2.4074122e-16 10.2555408,-4.14336123e-16 Z" id="Dashes-Square"></path>
                <path d="M51.2555408,-4.14336123e-16 L136.744459,4.14336123e-16 C140.310534,-2.4074122e-16 141.603679,0.371302445 142.907383,1.06853082 C144.211087,1.76575919 145.234241,2.78891348 145.931469,4.09261719 C146.628698,5.39632089 147,6.68946584 147,10.2555408 L147,177.744459 C147,181.310534 146.628698,182.603679 145.931469,183.907383 C145.234241,185.211087 144.211087,186.234241 142.907383,186.931469 C141.603679,187.628698 140.310534,188 136.744459,188 L51.2555408,188 C47.6894658,188 46.3963209,187.628698 45.0926172,186.931469 C43.7889135,186.234241 42.7657592,185.211087 42.0685308,183.907383 C41.3713024,182.603679 41,181.310534 41,177.744459 L41,10.2555408 C41,6.68946584 41.3713024,5.39632089 42.0685308,4.09261719 C42.7657592,2.78891348 43.7889135,1.76575919 45.0926172,1.06853082 C46.3963209,0.371302445 47.6894658,2.4074122e-16 51.2555408,-4.14336123e-16 Z" id="Dashes-Portrait"></path>
                <path d="M10.2555408,41 L177.744459,41 C181.310534,41 182.603679,41.3713024 183.907383,42.0685308 C185.211087,42.7657592 186.234241,43.7889135 186.931469,45.0926172 C187.628698,46.3963209 188,47.6894658 188,51.2555408 L188,136.744459 C188,140.310534 187.628698,141.603679 186.931469,142.907383 C186.234241,144.211087 185.211087,145.234241 183.907383,145.931469 C182.603679,146.628698 181.310534,147 177.744459,147 L10.2555408,147 C6.68946584,147 5.39632089,146.628698 4.09261719,145.931469 C2.78891348,145.234241 1.76575919,144.211087 1.06853082,142.907383 C0.371302445,141.603679 1.60494146e-16,140.310534 -2.76224082e-16,136.744459 L2.76224082e-16,51.2555408 C-1.60494146e-16,47.6894658 0.371302445,46.3963209 1.06853082,45.0926172 C1.76575919,43.7889135 2.78891348,42.7657592 4.09261719,42.0685308 C5.39632089,41.3713024 6.68946584,41 10.2555408,41 Z" id="Dashes-Landscape"></path>
            </g>
            <path d="M184.744459,55.5 C188.168936,55.5 189.417761,55.8388857 190.671583,56.5094374 C191.886864,57.1593766 192.840623,58.113136 193.490563,59.3284166 C194.161114,60.5822394 194.5,61.8310645 194.5,65.2555408 L194.5,65.2555408 L194.5,134.744459 C194.5,138.168936 194.161114,139.417761 193.490563,140.671583 C192.840623,141.886864 191.886864,142.840623 190.671583,143.490563 C189.417761,144.161114 188.168936,144.5 184.744459,144.5 L184.744459,144.5 L115.255541,144.5 C111.831064,144.5 110.582239,144.161114 109.328417,143.490563 C108.113136,142.840623 107.159377,141.886864 106.509437,140.671583 C105.838886,139.417761 105.5,138.168936 105.5,134.744459 L105.5,134.744459 L105.5,65.2555408 C105.5,61.8310645 105.838886,60.5822394 106.509437,59.3284166 C107.159377,58.113136 108.113136,57.1593766 109.328417,56.5094374 C110.582239,55.8388857 111.831064,55.5 115.255541,55.5 L115.255541,55.5 Z" id="Canvas" stroke-opacity="0.2" stroke="#808085" fill="#FCFCFC"></path>
        </g>
    </g>
</svg>