<?xml version="1.0" encoding="UTF-8"?>
<svg width="300px" height="200px" viewBox="0 0 300 200" version="1.1" xmlns="http://www.w3.org/2000/svg" xmlns:xlink="http://www.w3.org/1999/xlink">
    <title>Artboard</title>
    <g id="Page-1" stroke="none" stroke-width="1" fill="none" fill-rule="evenodd">
        <g id="Artboard">
            <path d="M219.744459,20.5 C223.168936,20.5 224.417761,20.8388857 225.671583,21.5094374 C226.886864,22.1593766 227.840623,23.113136 228.490563,24.3284166 C229.161114,25.5822394 229.5,26.8310645 229.5,30.2555408 L229.5,30.2555408 L229.5,169.744459 C229.5,173.168936 229.161114,174.417761 228.490563,175.671583 C227.840623,176.886864 226.886864,177.840623 225.671583,178.490563 C224.417761,179.161114 223.168936,179.5 219.744459,179.5 L219.744459,179.5 L80.2555408,179.5 C76.8310645,179.5 75.5822394,179.161114 74.3284166,178.490563 C73.113136,177.840623 72.1593766,176.886864 71.5094374,175.671583 C70.8388857,174.417761 70.5,173.168936 70.5,169.744459 L70.5,169.744459 L70.5,30.2555408 C70.5,26.8310645 70.8388857,25.5822394 71.5094374,24.3284166 C72.1593766,23.113136 73.113136,22.1593766 74.3284166,21.5094374 C75.5822394,20.8388857 76.8310645,20.5 80.2555408,20.5 L80.2555408,20.5 Z" id="Round-Square" stroke-opacity="0.2" stroke="#808085" fill="#FCFCFC"></path>
            <rect id="Safe-Area" stroke="#FF0000" x="105" y="55" width="90" height="90"></rect>
            <g id="Stick-Figure-1" transform="translate(132.573800, 70.960254)" stroke="#1F0A52">
                <path d="M16.6761368,3.6256072 C-10.1073847,-0.0852956871 0.0643323604,26.3718229 14.6183753,27.3240915 C37.9369577,28.8498225 30.1140636,-2.36294014 10.8358984,0.143328089" id="Path"></path>
                <path d="M13.2218889,28.6109412 C12.7213215,38.7114008 12.220754,48.8118605 11.7201866,58.9123202" id="Path-2"></path>
                <path d="M11.550225,57.7037485 C8.92553392,63.0244578 6.30084326,68.3451661 3.67615214,73.6658754" id="Path-3"></path>
                <path d="M11.3892005,59.8405328 C18.1435789,67.7193226 15.4361283,63.3302598 19.4582395,73.0404593" id="Path-4"></path>
                <path d="M11.7994788,40.99863 C10.2385768,43.5128866 8.67767476,46.0271432 7.11677276,48.5413999" id="Path-5"></path>
                <path d="M12.2351103,41.6229686 C15.2380502,44.184562 18.2409895,46.7461548 21.2439294,49.3077481" id="Path-6"></path>
            </g>
            <g id="Stick-Figure-2" transform="translate(132.711535, 70.104809)" stroke="#1F0A52">
                <path d="M15.14689,4.59206359 C-6.61302615,-1.76232349 -4.17652763,29.9475566 17.638991,28.8956718 C38.0338083,27.9122893 28.4453504,2.81701598 10.523213,-1.42108547e-14" id="Path-7"></path>
                <path d="M12.6592082,30.3295331 C11.3019885,64.3794116 13.4581687,49.6258004 8.22915082,74.8406326" id="Path-8"></path>
                <path d="M11.3427623,60.1018623 C12.0061401,68.0326547 10.975973,62.742987 18.7005899,74.497654" id="Path-9"></path>
                <path d="M11.9761504,43.0499538 C10.9500508,46.2792212 9.92395117,49.5084886 8.89785155,52.737756" id="Path-10"></path>
                <path d="M12.127199,43.0339271 C13.3743393,46.1142824 14.6214794,49.1946371 15.8686197,52.2749924" id="Path-11"></path>
            </g>
            <g id="Stick-Figure-3" transform="translate(133.304715, 69.765700)" stroke="#1F0A52">
                <path d="M13.7882889,4.98288219 C-7.19356949,1.36520072 -2.29714758,28.5540772 15.5267468,28.7967624 C38.0279603,29.1031326 25.5862687,2.05688416 9.89851904,0" id="Path-12"></path>
                <path d="M11.7142409,31.6188046 C11.1692077,41.7192676 10.6241746,51.8197306 10.0791414,61.9201936" id="Path-13"></path>
                <path d="M10.1938475,60.9535749 C10.2088111,65.7513359 10.2237746,70.5490961 10.2387382,75.3468571" id="Path-14"></path>
                <path d="M11.0964795,44.8122667 C10.4240729,47.4580024 9.75166629,50.103738 9.07925967,52.7494736" id="Path-15"></path>
                <path d="M11.1537176,44.6241059 C11.5838247,47.535783 12.0139318,50.4474595 12.4440389,53.3591366" id="Path-16"></path>
            </g>
        </g>
    </g>
</svg>