<?xml version="1.0" encoding="UTF-8"?>
<svg width="160px" height="160px" viewBox="0 0 160 160" version="1.1" xmlns="http://www.w3.org/2000/svg" xmlns:xlink="http://www.w3.org/1999/xlink">
    <title>Round Square</title>
    <g id="Page-1" stroke="none" stroke-width="1" fill="none" fill-rule="evenodd" stroke-opacity="0.2">
        <g id="Artboard" transform="translate(-70.000000, -20.000000)" fill="#FCFCFC" stroke="#808085">
            <path d="M219.744459,20.5 C223.168936,20.5 224.417761,20.8388857 225.671583,21.5094374 C226.886864,22.1593766 227.840623,23.113136 228.490563,24.3284166 C229.161114,25.5822394 229.5,26.8310645 229.5,30.2555408 L229.5,30.2555408 L229.5,169.744459 C229.5,173.168936 229.161114,174.417761 228.490563,175.671583 C227.840623,176.886864 226.886864,177.840623 225.671583,178.490563 C224.417761,179.161114 223.168936,179.5 219.744459,179.5 L219.744459,179.5 L80.2555408,179.5 C76.8310645,179.5 75.5822394,179.161114 74.3284166,178.490563 C73.113136,177.840623 72.1593766,176.886864 71.5094374,175.671583 C70.8388857,174.417761 70.5,173.168936 70.5,169.744459 L70.5,169.744459 L70.5,30.2555408 C70.5,26.8310645 70.8388857,25.5822394 71.5094374,24.3284166 C72.1593766,23.113136 73.113136,22.1593766 74.3284166,21.5094374 C75.5822394,20.8388857 76.8310645,20.5 80.2555408,20.5 L80.2555408,20.5 Z" id="Round-Square"></path>
        </g>
    </g>
</svg>