<?xml version="1.0" encoding="UTF-8"?>
<svg width="31px" height="75px" viewBox="0 0 31 75" version="1.1" xmlns="http://www.w3.org/2000/svg" xmlns:xlink="http://www.w3.org/1999/xlink">
    <title>Stick Figure 1</title>
    <g id="Page-1" stroke="none" stroke-width="1" fill="none" fill-rule="evenodd">
        <g id="Artboard" transform="translate(-132.000000, -70.000000)" stroke="#1F0A52">
            <g id="Stick-Figure-1" transform="translate(132.573800, 70.960254)">
                <path d="M16.6761368,3.6256072 C-10.1073847,-0.0852956871 0.0643323604,26.3718229 14.6183753,27.3240915 C37.9369577,28.8498225 30.1140636,-2.36294014 10.8358984,0.143328089" id="Path"></path>
                <path d="M13.2218889,28.6109412 C12.7213215,38.7114008 12.220754,48.8118605 11.7201866,58.9123202" id="Path-2"></path>
                <path d="M11.550225,57.7037485 C8.92553392,63.0244578 6.30084326,68.3451661 3.67615214,73.6658754" id="Path-3"></path>
                <path d="M11.3892005,59.8405328 C18.1435789,67.7193226 15.4361283,63.3302598 19.4582395,73.0404593" id="Path-4"></path>
                <path d="M11.7994788,40.99863 C10.2385768,43.5128866 8.67767476,46.0271432 7.11677276,48.5413999" id="Path-5"></path>
                <path d="M12.2351103,41.6229686 C15.2380502,44.184562 18.2409895,46.7461548 21.2439294,49.3077481" id="Path-6"></path>
            </g>
        </g>
    </g>
</svg>