<?xml version="1.0" encoding="UTF-8"?>
<svg width="300px" height="200px" viewBox="0 0 300 200" version="1.1" xmlns="http://www.w3.org/2000/svg" xmlns:xlink="http://www.w3.org/1999/xlink">
    <title>Artboard Copy 2</title>
    <g id="Page-1" stroke="none" stroke-width="1" fill="none" fill-rule="evenodd">
        <g id="Artboard-Copy-2">
            <path d="M219.744459,20.5 C223.168936,20.5 224.417761,20.8388857 225.671583,21.5094374 C226.886864,22.1593766 227.840623,23.113136 228.490563,24.3284166 C229.161114,25.5822394 229.5,26.8310645 229.5,30.2555408 L229.5,30.2555408 L229.5,169.744459 C229.5,173.168936 229.161114,174.417761 228.490563,175.671583 C227.840623,176.886864 226.886864,177.840623 225.671583,178.490563 C224.417761,179.161114 223.168936,179.5 219.744459,179.5 L219.744459,179.5 L80.2555408,179.5 C76.8310645,179.5 75.5822394,179.161114 74.3284166,178.490563 C73.113136,177.840623 72.1593766,176.886864 71.5094374,175.671583 C70.8388857,174.417761 70.5,173.168936 70.5,169.744459 L70.5,169.744459 L70.5,30.2555408 C70.5,26.8310645 70.8388857,25.5822394 71.5094374,24.3284166 C72.1593766,23.113136 73.113136,22.1593766 74.3284166,21.5094374 C75.5822394,20.8388857 76.8310645,20.5 80.2555408,20.5 L80.2555408,20.5 Z" id="Canvas" stroke-opacity="0.2" stroke="#808085" fill="#FCFCFC"></path>
            <path d="M149.366749,66.8764447 C110.43373,59.2822341 117.986045,138.308434 160.603354,124.434903 C188.110398,115.48033 180.406394,54.2940221 146.674627,66.6379518" id="First-Ball" stroke="#E02020" stroke-width="4" stroke-linecap="round" stroke-linejoin="round"></path>
            <path d="M152.432058,82.8764447 C113.499039,75.2822341 109.632563,135.880931 154.212202,135.880931 C183.471703,135.880931 183.471703,70.2940221 149.739937,82.6379518 L152.432058,82.8764447 Z" id="Second-Ball" stroke="#E02020" stroke-width="4" stroke-linecap="round" stroke-linejoin="round"></path>
            <path d="M150.610297,98.9746617 C146.347443,98.2481024 142.106732,96.2130748 137.821736,96.7949839 C115.948102,99.7654569 113.485689,155.360253 145.860837,158.896073 C190.066263,163.723925 184.93086,109.436172 145.770615,98.9051955" id="Third-Ball" stroke="#E02020" stroke-width="4" stroke-linecap="round" stroke-linejoin="round"></path>
            <path d="M148.102081,122.030994 C142.023343,122.390736 135.389555,120.547148 129.865867,123.110221 C105.600551,134.369686 122.327012,172.577979 142.380327,177.737732 C150.461918,179.817139 180.549383,174.392359 181.91427,163.512257 C184.177208,145.473396 165.455695,130.421846 151.248442,123.839102 L148.102081,122.030994 Z" id="Fourth-Ball" stroke="#E02020" stroke-width="4" stroke-linecap="round" stroke-linejoin="round"></path>
            <path d="M151.672836,139.456042 C143.880785,139.130394 133.710768,132.865739 128.296684,138.479098 L124.226506,140.195839 C113.070096,151.762878 98.3298679,171.972641 126.01484,175.278731 C139.850082,176.930911 153.858329,176.811001 167.791405,176.696898 C183.437714,176.568766 198.204245,163.514934 183.678272,149.711004 C172.742374,139.318697 163.01322,139.473794 148.121738,137.004787" id="Fifth-Ball" stroke="#E02020" stroke-width="4" stroke-linecap="round" stroke-linejoin="round"></path>
            <path d="M151.39448,150.605992 C150.692945,150.582181 120.072755,147.021136 109.410498,150.909567 C78.7788826,162.080648 109.98008,173.407134 121.61423,175.336291 C130.817399,176.862346 140.206959,177.059976 149.53322,177.279101 C157.881725,177.475254 166.323243,177.857187 174.575908,176.580653 C196.676019,173.162175 200.134443,161.901355 180.128951,150.894842 C174.063036,147.55753 156.563217,149.140063 152.65553,149.198646 L151.39448,150.605992 Z" id="Sixth-Ball" stroke="#E02020" stroke-width="4" stroke-linecap="round" stroke-linejoin="round"></path>
        </g>
    </g>
</svg>