<?xml version="1.0" encoding="UTF-8"?>
<svg width="32px" height="32px" viewBox="0 0 32 32" version="1.1" xmlns="http://www.w3.org/2000/svg" xmlns:xlink="http://www.w3.org/1999/xlink">
    <title>App Icon Square</title>
    <defs>
        <linearGradient x1="50%" y1="0%" x2="50%" y2="100%" id="linearGradient-1">
            <stop stop-color="#30D158" offset="0%"></stop>
            <stop stop-color="#34C759" offset="100%"></stop>
        </linearGradient>
    </defs>
    <g id="Template---App-Icons" stroke="none" stroke-width="1" fill="none" fill-rule="evenodd">
        <g id="App-Icon-Square">
            <rect id="App-Icon-1024x1024" fill="url(#linearGradient-1)" x="0" y="0" width="32" height="32"></rect>
            <g id="Group" transform="translate(10.187500, 0.500000)" fill-rule="nonzero">
                <path d="M7.18696581,9.26884422 C9.60470085,9.26884422 11.5918803,11.2026876 11.5918803,13.5954092 L11.5918803,13.5954092 L11.625,17.7253121 C11.625,18.7741763 10.9294872,19.7247095 9.90277778,20.0852566 L9.90277778,20.0852566 L9.37286325,20.2491416 L8.80982906,29.7872507 C8.7767094,30.4755679 8.21367521,31 7.51816239,31 L7.51816239,31 L4.10683761,31 C3.41132479,31 2.8482906,30.4755679 2.81517094,29.7872507 L2.81517094,29.7872507 L2.25213675,20.2491416 L1.72222222,20.0852566 C0.695512821,19.7574865 0,18.8069533 0,17.7253121 L0,17.7253121 L0,13.5954092 C0.0331196581,11.2026876 1.98717949,9.26884422 4.40491453,9.26884422 L4.40491453,9.26884422 Z M5.69467905,-1.77635684e-15 C7.97215396,-1.77635684e-15 9.81841216,1.8307954 9.81841216,4.08919598 C9.81841216,6.34759656 7.97215396,8.17839196 5.69467905,8.17839196 C3.41720415,8.17839196 1.57094595,6.34759656 1.57094595,4.08919598 C1.57094595,1.8307954 3.41720415,-1.77635684e-15 5.69467905,-1.77635684e-15 Z" id="Big" fill="#2ABC4E"></path>
                <path d="M6.91355057,13.6063128 C8.85033832,13.6063128 10.4422187,15.1541673 10.4422187,17.0693094 L10.4422187,17.0693094 L10.46875,20.374897 C10.46875,21.2144113 9.91159188,21.9752211 9.08912037,22.2638042 L9.08912037,22.2638042 L8.66461895,22.3949783 L8.21358618,30.0293116 C8.18705484,30.5802428 7.73602208,31 7.17886396,31 L7.17886396,31 L4.44613604,31 C3.88897792,31 3.43794516,30.5802428 3.41141382,30.0293116 L3.41141382,30.0293116 L2.96038105,22.3949783 L2.53587963,22.2638042 C1.71340812,22.001456 1.15625,21.2406461 1.15625,20.374897 L1.15625,20.374897 L1.15625,17.0693094 C1.18278134,15.1541673 2.74813034,13.6063128 4.68491809,13.6063128 L4.68491809,13.6063128 Z M5.71811655,6.1875 C7.54254538,6.1875 9.02153716,7.65287454 9.02153716,9.46050565 C9.02153716,11.2681368 7.54254538,12.7335113 5.71811655,12.7335113 C3.89368773,12.7335113 2.41469595,11.2681368 2.41469595,9.46050565 C2.41469595,7.65287454 3.89368773,6.1875 5.71811655,6.1875 Z" id="Big" fill="#25A745"></path>
                <path d="M6.69186254,17.0894315 C8.23869302,17.0894315 9.51006054,18.3273253 9.51006054,19.8589565 L9.51006054,19.8589565 L9.53125,22.5025939 C9.53125,23.1739939 9.08627137,23.7824501 8.42939815,24.0132439 L8.42939815,24.0132439 L8.09036681,24.1181501 L7.73014601,30.2236938 C7.70895655,30.6643 7.34873575,31 6.90375712,31 L6.90375712,31 L4.72124288,31 C4.27626425,31 3.91604345,30.6643 3.89485399,30.2236938 L3.89485399,30.2236938 L3.53463319,24.1181501 L3.19560185,24.0132439 C2.53872863,23.8034314 2.09375,23.1949752 2.09375,22.5025939 L2.09375,22.5025939 L2.09375,19.8589565 C2.11493946,18.3273253 3.36511752,17.0894315 4.91194801,17.0894315 L4.91194801,17.0894315 Z M5.73711993,11.15625 C7.19421409,11.15625 8.3754223,12.3281805 8.3754223,13.7738301 C8.3754223,15.2194797 7.19421409,16.3914102 5.73711993,16.3914102 C4.28002577,16.3914102 3.09881757,15.2194797 3.09881757,13.7738301 C3.09881757,12.3281805 4.28002577,11.15625 5.73711993,11.15625 Z" id="Big" fill="#20923D"></path>
                <path d="M6.51451211,19.8715452 C7.74937678,19.8715452 8.76433405,20.8618602 8.76433405,22.0871652 L8.76433405,22.0871652 L8.78125,24.2020751 C8.78125,24.7391951 8.42601496,25.2259601 7.90162037,25.4105951 L7.90162037,25.4105951 L7.6309651,25.4945201 L7.34339387,30.378955 C7.32647792,30.73144 7.0389067,31 6.68367165,31 L6.68367165,31 L4.94132835,31 C4.5860933,31 4.29852208,30.73144 4.28160613,30.378955 L4.28160613,30.378955 L3.9940349,25.4945201 L3.72337963,25.4105951 C3.19898504,25.2427451 2.84375,24.7559801 2.84375,24.2020751 L2.84375,24.2020751 L2.84375,22.0871652 C2.86066595,20.8618602 3.85870726,19.8715452 5.09357194,19.8715452 L5.09357194,19.8715452 Z M5.75232264,15.125 C6.91554907,15.125 7.85853041,16.0625444 7.85853041,17.2190641 C7.85853041,18.3755837 6.91554907,19.3131281 5.75232264,19.3131281 C4.5890962,19.3131281 3.64611486,18.3755837 3.64611486,17.2190641 C3.64611486,16.0625444 4.5890962,15.125 5.75232264,15.125 Z" id="Big" fill="#000000"></path>
            </g>
        </g>
    </g>
</svg>