<?xml version="1.0" encoding="UTF-8"?>
<svg width="90px" height="90px" viewBox="0 0 90 90" version="1.1" xmlns="http://www.w3.org/2000/svg" xmlns:xlink="http://www.w3.org/1999/xlink">
    <title>Canvas</title>
    <g id="Page-1" stroke="none" stroke-width="1" fill="none" fill-rule="evenodd" stroke-opacity="0.2">
        <g id="Artboard-Copy" transform="translate(-105.000000, -55.000000)" fill="#FCFCFC" stroke="#808085">
            <path d="M184.744459,55.5 C188.168936,55.5 189.417761,55.8388857 190.671583,56.5094374 C191.886864,57.1593766 192.840623,58.113136 193.490563,59.3284166 C194.161114,60.5822394 194.5,61.8310645 194.5,65.2555408 L194.5,65.2555408 L194.5,134.744459 C194.5,138.168936 194.161114,139.417761 193.490563,140.671583 C192.840623,141.886864 191.886864,142.840623 190.671583,143.490563 C189.417761,144.161114 188.168936,144.5 184.744459,144.5 L184.744459,144.5 L115.255541,144.5 C111.831064,144.5 110.582239,144.161114 109.328417,143.490563 C108.113136,142.840623 107.159377,141.886864 106.509437,140.671583 C105.838886,139.417761 105.5,138.168936 105.5,134.744459 L105.5,134.744459 L105.5,65.2555408 C105.5,61.8310645 105.838886,60.5822394 106.509437,59.3284166 C107.159377,58.113136 108.113136,57.1593766 109.328417,56.5094374 C110.582239,55.8388857 111.831064,55.5 115.255541,55.5 L115.255541,55.5 Z" id="Canvas"></path>
        </g>
    </g>
</svg>