<?xml version="1.0" encoding="UTF-8"?>
<svg width="190px" height="190px" viewBox="0 0 190 190" version="1.1" xmlns="http://www.w3.org/2000/svg" xmlns:xlink="http://www.w3.org/1999/xlink">
    <title>Dashes Square</title>
    <g id="Page-1" stroke="none" stroke-width="1" fill="none" fill-rule="evenodd">
        <g id="Artboard-Copy" transform="translate(-55.000000, -5.000000)" stroke="#808085">
            <g id="Group" transform="translate(56.000000, 6.000000)">
                <path d="M10.2555408,-4.14336123e-16 L177.744459,4.14336123e-16 C181.310534,-2.4074122e-16 182.603679,0.371302445 183.907383,1.06853082 C185.211087,1.76575919 186.234241,2.78891348 186.931469,4.09261719 C187.628698,5.39632089 188,6.68946584 188,10.2555408 L188,177.744459 C188,181.310534 187.628698,182.603679 186.931469,183.907383 C186.234241,185.211087 185.211087,186.234241 183.907383,186.931469 C182.603679,187.628698 181.310534,188 177.744459,188 L10.2555408,188 C6.68946584,188 5.39632089,187.628698 4.09261719,186.931469 C2.78891348,186.234241 1.76575919,185.211087 1.06853082,183.907383 C0.371302445,182.603679 1.60494146e-16,181.310534 -2.76224082e-16,177.744459 L2.76224082e-16,10.2555408 C-1.60494146e-16,6.68946584 0.371302445,5.39632089 1.06853082,4.09261719 C1.76575919,2.78891348 2.78891348,1.76575919 4.09261719,1.06853082 C5.39632089,0.371302445 6.68946584,2.4074122e-16 10.2555408,-4.14336123e-16 Z" id="Dashes-Square"></path>
            </g>
        </g>
    </g>
</svg>