<?xml version="1.0" encoding="UTF-8"?>
<svg width="190px" height="108px" viewBox="0 0 190 108" version="1.1" xmlns="http://www.w3.org/2000/svg" xmlns:xlink="http://www.w3.org/1999/xlink">
    <title>Dashes Landscape</title>
    <g id="Page-1" stroke="none" stroke-width="1" fill="none" fill-rule="evenodd">
        <g id="Artboard-Copy" transform="translate(-55.000000, -46.000000)" stroke="#808085">
            <g id="Group" transform="translate(56.000000, 6.000000)">
                <path d="M10.2555408,41 L177.744459,41 C181.310534,41 182.603679,41.3713024 183.907383,42.0685308 C185.211087,42.7657592 186.234241,43.7889135 186.931469,45.0926172 C187.628698,46.3963209 188,47.6894658 188,51.2555408 L188,136.744459 C188,140.310534 187.628698,141.603679 186.931469,142.907383 C186.234241,144.211087 185.211087,145.234241 183.907383,145.931469 C182.603679,146.628698 181.310534,147 177.744459,147 L10.2555408,147 C6.68946584,147 5.39632089,146.628698 4.09261719,145.931469 C2.78891348,145.234241 1.76575919,144.211087 1.06853082,142.907383 C0.371302445,141.603679 1.60494146e-16,140.310534 -2.76224082e-16,136.744459 L2.76224082e-16,51.2555408 C-1.60494146e-16,47.6894658 0.371302445,46.3963209 1.06853082,45.0926172 C1.76575919,43.7889135 2.78891348,42.7657592 4.09261719,42.0685308 C5.39632089,41.3713024 6.68946584,41 10.2555408,41 Z" id="Dashes-Landscape"></path>
            </g>
        </g>
    </g>
</svg>