<?xml version="1.0" encoding="UTF-8"?>
<svg width="108px" height="190px" viewBox="0 0 108 190" version="1.1" xmlns="http://www.w3.org/2000/svg" xmlns:xlink="http://www.w3.org/1999/xlink">
    <title>Dashes Portrait</title>
    <g id="Page-1" stroke="none" stroke-width="1" fill="none" fill-rule="evenodd">
        <g id="Artboard-Copy" transform="translate(-96.000000, -5.000000)" stroke="#808085">
            <g id="Group" transform="translate(56.000000, 6.000000)">
                <path d="M51.2555408,-4.14336123e-16 L136.744459,4.14336123e-16 C140.310534,-2.4074122e-16 141.603679,0.371302445 142.907383,1.06853082 C144.211087,1.76575919 145.234241,2.78891348 145.931469,4.09261719 C146.628698,5.39632089 147,6.68946584 147,10.2555408 L147,177.744459 C147,181.310534 146.628698,182.603679 145.931469,183.907383 C145.234241,185.211087 144.211087,186.234241 142.907383,186.931469 C141.603679,187.628698 140.310534,188 136.744459,188 L51.2555408,188 C47.6894658,188 46.3963209,187.628698 45.0926172,186.931469 C43.7889135,186.234241 42.7657592,185.211087 42.0685308,183.907383 C41.3713024,182.603679 41,181.310534 41,177.744459 L41,10.2555408 C41,6.68946584 41.3713024,5.39632089 42.0685308,4.09261719 C42.7657592,2.78891348 43.7889135,1.76575919 45.0926172,1.06853082 C46.3963209,0.371302445 47.6894658,2.4074122e-16 51.2555408,-4.14336123e-16 Z" id="Dashes-Portrait"></path>
            </g>
        </g>
    </g>
</svg>